<svg width="32" height="32" viewBox="0 0 32 32" xmlns="http://www.w3.org/2000/svg">
  <defs>
    <radialGradient id="starGlow" cx="50%" cy="50%" r="50%">
      <stop offset="0%" style="stop-color:#FFFFFF;stop-opacity:1" />
      <stop offset="50%" style="stop-color:#FFD700;stop-opacity:0.8" />
      <stop offset="100%" style="stop-color:#FFD700;stop-opacity:0" />
    </radialGradient>
    <radialGradient id="centerGlow" cx="50%" cy="50%" r="40%">
      <stop offset="0%" style="stop-color:#FFFFFF;stop-opacity:1" />
      <stop offset="70%" style="stop-color:#FFD700;stop-opacity:0.6" />
      <stop offset="100%" style="stop-color:#000011;stop-opacity:0" />
    </radialGradient>
  </defs>

  <!-- Dark space background -->
  <rect width="32" height="32" fill="#000011"/>

  <!-- Constellation circle pattern -->
  <!-- Outer constellation ring -->
  <g stroke="#FFD700" stroke-width="0.5" fill="none" opacity="0.6">
    <circle cx="16" cy="16" r="11" />
  </g>

  <!-- Connection lines to center -->
  <g stroke="#FFD700" stroke-width="0.3" opacity="0.4">
    <line x1="16" y1="5" x2="16" y2="16" />
    <line x1="25.5" y1="11" x2="16" y2="16" />
    <line x1="25.5" y1="21" x2="16" y2="16" />
    <line x1="16" y1="27" x2="16" y2="16" />
    <line x1="6.5" y1="21" x2="16" y2="16" />
    <line x1="6.5" y1="11" x2="16" y2="16" />
  </g>

  <!-- Outer constellation stars -->
  <g>
    <!-- Top -->
    <circle cx="16" cy="5" r="3" fill="url(#starGlow)" />
    <circle cx="16" cy="5" r="1" fill="#FFFFFF" />

    <!-- Top right -->
    <circle cx="25.5" cy="11" r="2.5" fill="url(#starGlow)" />
    <circle cx="25.5" cy="11" r="0.8" fill="#FFFFFF" />

    <!-- Bottom right -->
    <circle cx="25.5" cy="21" r="2.5" fill="url(#starGlow)" />
    <circle cx="25.5" cy="21" r="0.8" fill="#FFFFFF" />

    <!-- Bottom -->
    <circle cx="16" cy="27" r="3" fill="url(#starGlow)" />
    <circle cx="16" cy="27" r="1" fill="#FFFFFF" />

    <!-- Bottom left -->
    <circle cx="6.5" cy="21" r="2.5" fill="url(#starGlow)" />
    <circle cx="6.5" cy="21" r="0.8" fill="#FFFFFF" />

    <!-- Top left -->
    <circle cx="6.5" cy="11" r="2.5" fill="url(#starGlow)" />
    <circle cx="6.5" cy="11" r="0.8" fill="#FFFFFF" />
  </g>

  <!-- Inner constellation points -->
  <g>
    <circle cx="21" cy="8" r="2" fill="url(#starGlow)" />
    <circle cx="21" cy="8" r="0.6" fill="#FFFFFF" />

    <circle cx="24" cy="16" r="2" fill="url(#starGlow)" />
    <circle cx="24" cy="16" r="0.6" fill="#FFFFFF" />

    <circle cx="21" cy="24" r="2" fill="url(#starGlow)" />
    <circle cx="21" cy="24" r="0.6" fill="#FFFFFF" />

    <circle cx="11" cy="24" r="2" fill="url(#starGlow)" />
    <circle cx="11" cy="24" r="0.6" fill="#FFFFFF" />

    <circle cx="8" cy="16" r="2" fill="url(#starGlow)" />
    <circle cx="8" cy="16" r="0.6" fill="#FFFFFF" />

    <circle cx="11" cy="8" r="2" fill="url(#starGlow)" />
    <circle cx="11" cy="8" r="0.6" fill="#FFFFFF" />
  </g>

  <!-- Center star -->
  <circle cx="16" cy="16" r="4" fill="url(#centerGlow)" />
  <circle cx="16" cy="16" r="1.5" fill="#FFFFFF" />
</svg>